<?xml version="1.0" standalone="no"?>
<!DOCTYPE svg PUBLIC "-//W3C//DTD SVG 20010904//EN" "http://www.w3.org/TR/2001/REC-SVG-20010904/DTD/svg10.dtd">
<!-- Created using Krita: https://krita.org -->
<svg xmlns="http://www.w3.org/2000/svg" 
    xmlns:xlink="http://www.w3.org/1999/xlink"
    xmlns:krita="http://krita.org/namespaces/svg/krita"
    xmlns:sodipodi="http://sodipodi.sourceforge.net/DTD/sodipodi-0.dtd"
    width="921.6pt"
    height="518.4pt"
    viewBox="0 0 921.6 518.4">
<defs>
  <linearGradient id="gradient0" gradientUnits="objectBoundingBox" x1="0" y1="0" x2="1.10079840318487" y2="1.11304347825107" spreadMethod="pad">
   <stop stop-color="#000000" offset="0.00930000003427267" stop-opacity="1"/>
   <stop stop-color="#2c001e" offset="0.177599996328354" stop-opacity="1"/>
   <stop stop-color="#5e2750" offset="0.462300002574921" stop-opacity="1"/>
   <stop stop-color="#77216f" offset="0.660377383232117" stop-opacity="1"/>
   <stop stop-color="#a33555" offset="0.773599982261658" stop-opacity="1"/>
   <stop stop-color="#e95420" offset="1" stop-opacity="1"/>
  </linearGradient>
  <linearGradient id="gradient1" gradientUnits="objectBoundingBox" x1="0.466542755059429" y1="1.48039216996789" x2="0.477695162662551" y2="0.450980387296678" spreadMethod="pad">
   <stop stop-color="#6e3c61" offset="0.00930000003427267" stop-opacity="1"/>
   <stop stop-color="#411934" offset="1" stop-opacity="1"/>
  </linearGradient>
  <linearGradient id="gradient2" gradientUnits="objectBoundingBox" x1="0.42187498739057" y1="-4.44089209850063e-16" x2="0.422851579750401" y2="1.41666660477715" spreadMethod="pad">
   <stop stop-color="#7e5273" offset="0.00930000003427267" stop-opacity="1"/>
   <stop stop-color="#411934" offset="1" stop-opacity="1"/>
  </linearGradient>
  <linearGradient id="gradient3" gradientUnits="objectBoundingBox" x1="0.64181698587443" y1="0" x2="0.322080808670133" y2="1.01770833278887" spreadMethod="pad">
   <stop stop-color="#bea8b9" offset="0.00930000003427267" stop-opacity="1"/>
   <stop stop-color="#9e7d96" offset="1" stop-opacity="1"/>
  </linearGradient>
 </defs>
<rect id="shape0" transform="matrix(0.999999858714929 0 0 0.999999858714929 -17.279895833343 -12.4799982367623)" fill="url(#gradient0)" fill-rule="evenodd" stroke="#411934" stroke-width="7.68" stroke-linecap="square" stroke-linejoin="bevel" width="961.92" height="552"/><path id="shape1" transform="matrix(0.999999858714929 0 0 0.999999858714929 -92.159881691999 402.239929016926)" fill="url(#gradient1)" fill-rule="evenodd" stroke-opacity="0" stroke="#000000" stroke-width="0" stroke-linecap="square" stroke-linejoin="bevel" d="M516.48 85.44L0 0L10.56 97.92Z" sodipodi:nodetypes="cccc"/><rect id="shape2" transform="matrix(0.999999858714929 0 0 0.999999858714929 -13.4398963758777 479.999917836437)" fill="url(#gradient2)" fill-rule="evenodd" stroke-opacity="0" stroke="#000000" stroke-width="0" stroke-linecap="square" stroke-linejoin="bevel" width="983.04" height="111.360014344149"/><path id="shape3" transform="matrix(0.999999858714929 0 0 0.999999858714929 334.080044539412 425.279927203084)" fill="#2c001e" fill-rule="evenodd" stroke-opacity="0" stroke="#000000" stroke-width="0" stroke-linecap="square" stroke-linejoin="bevel" d="M268.8 37.44L600 0L605.76 171.84L0 183.36Z" sodipodi:nodetypes="ccccc"/><path id="shape4" transform="matrix(0.999999858714929 0 0 0.999999858714929 -47.9998717813924 259.199963378909)" fill="#7e5273" fill-rule="evenodd" stroke-opacity="0" stroke="#000000" stroke-width="0" stroke-linecap="square" stroke-linejoin="bevel" d="M0 346.56L1014.72 0Z" sodipodi:nodetypes="ccc"/><path id="shape01" transform="matrix(1.07858657225432 0 0 1.07858657225432 788.723683760682 427.454463815484)" fill="#e95420" fill-rule="evenodd" stroke-opacity="0" stroke="#000000" stroke-width="0" stroke-linecap="square" stroke-linejoin="bevel" d="M5.81568 47.04L67.44 48.24L8.64002 24L3.84 0L0 1.28531L4.8 24.7599Z" sodipodi:nodetypes="ccccccc"/><path id="shape01" transform="matrix(1.07858659452119 0 0 1.07858659452119 675.601521993098 434.702573936303)" fill="#e95420" fill-rule="evenodd" stroke-opacity="0" stroke="#000000" stroke-width="0" stroke-linecap="square" stroke-linejoin="bevel" d="M0 51.12L73.92 50.88L29.04 25.68L30.96 0.72L26.64 0L24.24 26.16Z" sodipodi:nodetypes="ccccccc"/><path id="shape11" transform="matrix(1.07858659452119 0 0 1.07858659452119 675.67627900454 188.651364466667)" fill="#e95420" fill-rule="evenodd" stroke-opacity="0" stroke="#000000" stroke-width="0" stroke-linecap="square" stroke-linejoin="bevel" d="M58.8879 0L10.0126 23.2497L0 68.052L50.5521 64.2037Z" sodipodi:nodetypes="ccccc"/><path id="shape21" transform="matrix(1.07442886958222 -0.0946131390933502 0.0946131390933502 1.07442886958222 586.099727432073 398.693195856812)" fill="#2c001e" fill-rule="evenodd" stroke-opacity="0" stroke="#000000" stroke-width="0" stroke-linecap="square" stroke-linejoin="bevel" d="M0 29.4191L95.221 31.54L76.3148 0Z" sodipodi:nodetypes="cccc"/><path id="shape31" transform="matrix(1.07858659452119 0 0 1.07858659452119 668.612248203691 252.593999265881)" fill="url(#gradient3)" fill-rule="evenodd" stroke-opacity="0" stroke="#000000" stroke-width="0" stroke-linecap="square" stroke-linejoin="bevel" d="M163.44 0L192.96 35.88L190.56 109.8L118.08 166.68L110.4 166.68L96.48 142.44L39.6 174.84L30.48 174.84L0 129.24L71.16 95.76L92.16 15.84Z" sodipodi:nodetypes="cccccccccccc"/><path id="shape41" transform="matrix(1.07771036945714 -0.0434672456614955 0.0434672456614955 1.07771036945714 698.942726970016 151.648730939415)" fill="#2c001e" fill-rule="evenodd" stroke-opacity="0" stroke="#000000" stroke-width="0" stroke-linecap="square" stroke-linejoin="bevel" d="M29.3507 38.2358L45.367 8.66567L66.7299 0L121.724 6.33287L140.482 56.4624L131.682 98.8575L58.9396 113.141L25.0029 99.7137C4.18879 87.0078 24.2854 99.7274 0 83.759C3.34737 60.0514 0.453147 80.6148 3.80051 56.9071C13.1848 50.6636 19.9665 44.4793 29.3507 38.2358Z" sodipodi:nodetypes="ccccccccccc"/><path id="shape5" transform="matrix(1.07858659452119 0 0 1.07858659452119 724.914482079716 179.063357163405)" fill="#ae93a7" fill-rule="evenodd" stroke-opacity="0" stroke="#000000" stroke-width="0" stroke-linecap="square" stroke-linejoin="bevel" d="M6.39599 11.5181L30.4605 0L118.115 25.6903L77.16 69.0132L4.41251 72.6987L0 51.9732Z" sodipodi:nodetypes="ccccccc"/><path id="shape6" transform="matrix(1.07858659452119 0 0 1.07858659452119 749.808404709316 197.437399079454)" fill="#411934" fill-rule="evenodd" stroke-opacity="0" stroke="#000000" stroke-width="0" stroke-linecap="square" stroke-linejoin="bevel" d="M0 1.52735L0.509117 19.6859L25.2799 17.1779L7.29734 0Z" sodipodi:nodetypes="ccccc"/><path id="shape7" transform="matrix(1.07858659452119 0 0 1.07858659452119 724.849791398943 206.955590609934)" fill="#bea8b9" fill-rule="evenodd" stroke-opacity="0" stroke="#000000" stroke-width="0" stroke-linecap="square" stroke-linejoin="bevel" d="M2.09999 13.1532L118.175 0L77.5939 43.2749L0 26.2932Z" sodipodi:nodetypes="ccccc"/><path id="shape8" transform="matrix(1.07858659452119 0 0 1.07858659452119 739.022410061291 291.164283668412)" fill="#c6b3c1" fill-rule="evenodd" stroke-opacity="0" stroke="#000000" stroke-width="0" stroke-linecap="square" stroke-linejoin="bevel" d="M127.56 0L0 23.4L125.52 73.32Z" sodipodi:nodetypes="cccc"/><path id="shape9" transform="matrix(1.07858659452119 0 0 1.07858659452119 474.984409201069 264.50160346682)" fill="#411934" fill-rule="evenodd" stroke-opacity="0" stroke="#000000" stroke-width="0" stroke-linecap="square" stroke-linejoin="bevel" d="M204.48 3.83999L159.84 48L77.76 75.36L0 72.48L41.28 106.08L157.92 128.16L251.418 84.535L271.2 5.28L254.88 0Z" sodipodi:nodetypes="cccccccccc"/><path id="shape10" transform="matrix(1.07858659452119 0 0 1.07858659452119 559.63189416662 262.56014560509)" fill="#2c001e" fill-rule="evenodd" stroke-opacity="0" stroke="#000000" stroke-width="0" stroke-linecap="square" stroke-linejoin="bevel" d="M0 77.04L181.92 47.52L196.08 0L126.36 5.76002L79.92 47.04Z" sodipodi:nodetypes="cccccc"/><rect id="shape02" transform="matrix(-0.566711227370691 -0.622750515846373 0.611031966268442 -0.564520357444477 217.329839899205 168.185150999096)" fill="#ae93a7" fill-rule="evenodd" stroke-opacity="0" stroke="#000000" stroke-width="0" stroke-linecap="square" stroke-linejoin="bevel" width="13.2000030702026" height="13.2000030702026"/><rect id="shape011" transform="matrix(-0.566711224310177 -0.622750512483217 0.611031962968576 -0.564520354395799 120.031137211086 145.847222712508)" fill="#ae93a7" fill-rule="evenodd" stroke-opacity="0" stroke="#000000" stroke-width="0" stroke-linecap="square" stroke-linejoin="bevel" width="13.2000030702026" height="13.2000030702026"/><rect id="shape011" transform="matrix(-0.566711224310178 -0.622750512483218 0.611031962968577 -0.564520354395799 192.454548793064 79.0321083541456)" fill="#ae93a7" fill-rule="evenodd" stroke-opacity="0" stroke="#000000" stroke-width="0" stroke-linecap="square" stroke-linejoin="bevel" width="13.2000030702026" height="13.2000030702026"/>
</svg>
